#!OML:ASF I:\Actors\actors\Patient Classification 2\Patient 1\Session 1\actor1.ASF
:FULLY-SPECIFIED
:DEGREES
687
root -0.471996 18.6978 5.89018 12.3774 -1.94846 -4.36333
lowerback 9.64949 -0.625021 1.80612
upperback -0.543374 -0.552024 1.18949
thorax -5.99483 -0.308773 0.308387
lowerneck -2.98787 0.0692153 3.94922
upperneck 11.6585 0.49151 -6.1753
head 3.98132 0.102445 -2.51778
rclavicle 3.08116e-015 -7.7526e-015
rhumerus -83.7906 14.9159 -96.6216
rradius 107.184
rwrist 2.26332
rhand 5.06076 -25.1261
rfingers 7.12502
rthumb 30.4279 -52.635
lclavicle 3.08116e-015 -7.7526e-015
lhumerus -83.2488 -22.4777 107.678
lradius 105.321
lwrist 14.0497
lhand -14.3433 -25.7342
lfingers 7.12502
lthumb 11.7981 3.91348
rfemur -5.13326 -2.49901 17.9107
rtibia -2.62396e-014
rfoot -13.9015 -12.162
rtoes -5.77518
lfemur -22.3164 4.12494 -10.2686
ltibia 31.0963
lfoot -20.1988 5.4578
ltoes -56.9911
688
root -0.459513 18.7003 5.87796 12.458 -1.89384 -4.79182
lowerback 9.55827 -0.562964 1.10419
upperback -0.477499 -0.563332 1.0208
thorax -5.86791 -0.294717 0.52673
lowerneck -3.10099 0.312978 3.88013
upperneck 11.3126 0.614867 -4.42398
head 4.33183 0.261356 -2.16705
rclavicle -1.2921e-015 9.93923e-015
rhumerus -83.752 14.9223 -96.6258
rradius 107.118
rwrist 2.49589
rhand 4.83167 -24.8758
rfingers 7.12502
rthumb 30.2094 -52.4249
lclavicle -1.2921e-015 9.93923e-015
lhumerus -83.1534 -22.5685 107.7
lradius 105.417
lwrist 14.0964
lhand -14.2944 -25.8592
lfingers 7.12502
lthumb 11.8452 3.78583
rfemur -5.29404 -2.5135 18.3488
rtibia -7.95139e-016
rfoot -13.5828 -12.3459
rtoes -5.30715
lfemur -22.3711 3.85424 -9.81211
ltibia 30.9923
lfoot -20.3023 5.86005
ltoes -57.1408
689
root -0.447834 18.7046 5.86555 12.5651 -1.7917 -5.25972
lowerback 9.4137 -0.50674 0.64485
upperback -0.401428 -0.558175 0.769358
thorax -5.70381 -0.28208 0.519395
lowerneck -3.25066 0.504003 3.7094
upperneck 11.3317 0.68238 -2.61061
head 4.34771 0.369208 -1.50988
rclavicle -6.36111e-015 -3.97569e-015
rhumerus -83.7017 14.7844 -96.7685
rradius 106.992
rwrist 2.69943
rhand 4.52854 -24.806
rfingers 7.12502
rthumb 29.9202 -52.4077
lclavicle -6.36111e-015 -3.97569e-015
lhumerus -83.0664 -22.8468 107.601
lradius 105.52
lwrist 14.1516
lhand -14.3025 -25.7695
lfingers 7.12502
lthumb 11.8374 3.87591
rfemur -7.46369 -2.54983 18.9009
rtibia 3.99024
rfoot -14.7216 -11.2244
rtoes -4.5844
lfemur -22.5373 3.65231 -9.30123
ltibia 30.9895
lfoot -20.3362 6.12334
ltoes -57.2
690
root -0.438279 18.7098 5.85504 12.6136 -1.63508 -5.76888
lowerback 9.36521 -0.437477 0.316497
upperback -0.340126 -0.516223 0.546516
thorax -5.61109 -0.255211 0.464663
lowerneck -3.47614 0.627032 3.37351
upperneck 11.4433 0.650337 -0.657798
head 4.41054 0.430558 -0.78907
rclavicle -7.95139e-015 -1.59028e-015
rhumerus -83.7103 14.6587 -96.9451
rradius 106.887
rwrist 2.76889
rhand 4.3386 -25.0365
rfingers 7.12502
rthumb 29.7389 -52.6708
lclavicle -7.95139e-015 -1.59028e-015
lhumerus -83.0536 -23.1329 107.5
lradius 105.605
lwrist 14.172
lhand -14.2984 -25.7223
lfingers 7.12502
lthumb 11.8413 3.92289
rfemur -8.61931 -2.63004 19.4591
rtibia 6.10948
rfoot -15.0419 -10.6384
rtoes -3.89095
lfemur -22.6603 3.50404 -8.73659
ltibia 31.035
lfoot -20.3752 6.25473
ltoes -57.1963
691
root -0.43056 18.7166 5.84197 12.7078 -1.40358 -6.30217
lowerback 9.36998 -0.362921 0.0767471
upperback -0.346449 -0.452903 0.381688
thorax -5.62014 -0.219523 0.418795
lowerneck -3.65549 0.672915 2.92588
upperneck 11.5131 0.518433 1.32423
head 4.45543 0.442227 -0.047065
rclavicle -1.76918e-014 1.03368e-014
rhumerus -83.8499 14.6121 -97.1067
rradius 106.866
rwrist 2.85343
rhand 4.25047 -25.3119
rfingers 7.12502
rthumb 29.6548 -52.9612
lclavicle -1.76918e-014 1.03368e-014
lhumerus -83.0896 -23.315 107.472
lradius 105.648
lwrist 14.22
lhand -14.4387 -25.7722
lfingers 7.12502
lthumb 11.7061 3.88078
rfemur -9.39332 -2.7889 20.0526
rtibia 7.35219
rfoot -15.0736 -10.361
rtoes -3.56646
lfemur -22.8412 3.34896 -8.13081
ltibia 31.0596
lfoot -20.3788 6.34544
ltoes -57.1306
692
root -0.422861 18.7252 5.82621 12.8672 -1.13606 -6.82347
lowerback 9.3756 -0.310601 -0.107737
upperback -0.397132 -0.411636 0.241991
thorax -5.67653 -0.195763 0.371357
lowerneck -3.84839 0.735491 2.53275
upperneck 11.5404 0.410614 3.2407
head 4.50033 0.46654 0.665451
rclavicle -7.95139e-016 1.59028e-015
rhumerus -83.9851 14.675 -97.274
rradius 106.823
rwrist 3.04932
rhand 4.21943 -25.2477
rfingers 7.12502
rthumb 29.6252 -52.9022
lclavicle -7.95139e-016 1.59028e-015
lhumerus -83.1056 -23.3732 107.46
lradius 105.677
lwrist 14.3781
lhand -14.7884 -25.7771
lfingers 7.12502
lthumb 11.3688 3.89472
rfemur -10.0945 -2.98452 20.6366
rtibia 8.28416
rfoot -15.0098 -10.1962
rtoes -3.39914
lfemur -23.0994 3.18597 -7.53771
ltibia 31.0363
lfoot -20.3199 6.50883
ltoes -57.1931
693
root -0.406363 18.7361 5.8319 12.6943 -1.19204 -7.34642
lowerback 9.43631 -0.176282 -0.261978
upperback -0.30408 -0.256547 0.130958
thorax -5.61391 -0.116871 0.320414
lowerneck -3.99931 0.825952 2.14183
upperneck 11.4863 0.354355 5.07517
head 4.51658 0.511369 1.35697
rclavicle 1.98785e-015 -7.95139e-016
rhumerus -84.1076 14.8877 -97.3509
rradius 106.838
rwrist 3.13067
rhand 4.4108 -24.9834
rfingers 7.12502
rthumb 29.8078 -52.6053
lclavicle 1.98785e-015 -7.95139e-016
lhumerus -83.0946 -23.2645 107.454
lradius 105.76
lwrist 14.5594
lhand -15.0837 -25.8142
lfingers 7.12502
lthumb 11.084 3.87307
rfemur -10.2569 -2.88182 21.0574
rtibia 8.96203
rfoot -14.754 -10.0216
rtoes -3.18884
lfemur -22.777 2.8805 -6.99968
ltibia 30.9457
lfoot -20.4991 7.00362
ltoes -57.2997
694
root -0.39991 18.7498 5.82355 12.8352 -1.01668 -7.69941
lowerback 9.33894 -0.11265 -0.574838
upperback -0.350172 -0.209592 0.0730853
thorax -5.60685 -0.0855403 0.429302
lowerneck -3.98365 0.872489 1.73278
upperneck 11.2831 0.260449 6.89745
head 4.45405 0.529364 2.04909
rclavicle -7.15625e-015 -3.18055e-015
rhumerus -84.266 15.146 -97.3146
rradius 106.964
rwrist 3.10891
rhand 4.65358 -24.9761
rfingers 7.12502
rthumb 30.0395 -52.5563
lclavicle -7.15625e-015 -3.18055e-015
lhumerus -83.0978 -23.0583 107.482
lradius 105.876
lwrist 14.6532
lhand -15.235 -25.8817
lfingers 7.12502
lthumb 10.9381 3.81337
rfemur -10.6971 -3.03267 21.402
rtibia 9.45731
rfoot -14.3216 -9.90027
rtoes -3.22537
lfemur -22.9082 2.60683 -6.58547
ltibia 30.8128
lfoot -20.496 7.28894
ltoes -57.3292
695
root -0.390275 18.763 5.82532 12.7296 -1.04455 -8.05958
lowerback 9.39852 0.0171019 -0.77828
upperback -0.323672 -0.0637492 0.00578109
thorax -5.61428 -0.00895665 0.453247
lowerneck -3.87392 0.905073 1.45915
upperneck 11.3135 0.123261 8.80738
head 4.01187 0.558865 2.45922
rclavicle -8.34896e-015 -1.27222e-014
rhumerus -84.3522 15.3493 -97.2265
rradius 107.033
rwrist 3.14364
rhand 4.82989 -24.9703
rfingers 7.12502
rthumb 30.2077 -52.5197
lclavicle -8.34896e-015 -1.27222e-014
lhumerus -83.1178 -22.8514 107.533
lradius 105.967
lwrist 14.6735
lhand -15.3839 -25.9725
lfingers 7.12502
lthumb 10.7945 3.73009
rfemur -10.776 -2.99708 21.6545
rtibia 9.79175
rfoot -13.9149 -9.80204
rtoes -4.03344
lfemur -22.6507 2.35998 -6.19576
ltibia 30.6538
lfoot -20.6004 7.6096
ltoes -57.2907
696
root -0.382368 18.7745 5.82355 12.7274 -1.08444 -8.4307
lowerback 9.35609 0.141051 -0.890362
upperback -0.319554 0.0875335 -0.0221507
thorax -5.58823 0.0681567 0.465944
lowerneck -3.82174 0.956572 1.3038
upperneck 11.0205 0.0679533 10.3368
head 3.91404 0.587899 2.94958
rclavicle -3.97569e-015 7.95139e-015
rhumerus -84.3183 15.5129 -97.1142
rradius 107.038
rwrist 3.15528
rhand 4.97519 -24.8318
rfingers 7.12502
rthumb 30.3463 -52.3558
lclavicle -3.97569e-015 7.95139e-015
lhumerus -83.0532 -22.6821 107.582
lradius 105.876
lwrist 14.9003
lhand -15.9106 -26.7725
lfingers 7.12502
lthumb 10.2864 2.95594
rfemur -10.9583 -2.94119 21.9406
rtibia 10.0757
rfoot -13.5195 -9.71575
rtoes -4.82505
lfemur -22.5375 2.22629 -5.80181
ltibia 30.5208
lfoot -20.6601 7.86501
ltoes -57.2853
